<svg width="720" height="135" viewBox="0 0 720 135" fill="none" xmlns="http://www.w3.org/2000/svg">
<mask id="path-1-outside-1_6_94" maskUnits="userSpaceOnUse" x="-1.00037" y="0" width="721" height="135" fill="black">
<rect fill="white" x="-1.00037" width="721" height="135"/>
<path fill-rule="evenodd" clip-rule="evenodd" d="M133.649 118.974H160.605L165.139 101.627H179.346L179.801 103.369L195.782 118.974H222.739L194.271 31.7567L178.287 16H146.076L117.559 103.369L133.649 118.974ZM92.8894 31.7567L76.7285 16H44.5176L16 103.369L32.2667 118.974H59.2235L63.7567 101.627H77.7869L78.2422 103.369L94.4004 118.974H121.357L92.8894 31.7567ZM127.503 129.28C125.669 130.374 123.551 130.974 121.357 130.974H94.4004C91.2903 130.974 88.3016 129.766 86.0643 127.606L72.7348 114.733L70.8337 122.008C69.4535 127.289 64.6824 130.974 59.2235 130.974H32.2667C29.1704 130.974 26.1939 129.777 23.9595 127.633L7.69282 112.029C4.3674 108.839 3.16245 104.026 4.59231 99.6456L33.1099 12.2765C34.7212 7.34002 39.3248 4 44.5176 4H76.7285C79.8585 4 82.8646 5.22293 85.1057 7.40796L101.267 23.1647C102.655 24.5187 103.695 26.1893 104.297 28.0332L116.911 66.6796L134.669 12.2765C136.28 7.34002 140.884 4 146.076 4H178.287C181.44 4 184.466 5.24081 186.712 7.45419L202.696 23.2109C204.061 24.5569 205.084 26.2105 205.679 28.0332L211.356 45.4259V16C211.356 9.37258 216.729 4 223.356 4H262.409C262.616 4 262.823 4.00535 263.029 4.01606L267.985 4.27268C268.427 4.29557 268.867 4.34289 269.304 4.41442L273.926 5.1714C274.399 5.24893 274.867 5.35479 275.328 5.48839L279.597 6.72637C280.093 6.87002 280.578 7.04546 281.051 7.2516L284.949 8.95126C285.452 9.1702 285.938 9.42327 286.406 9.70869L289.915 11.8507C290.403 12.1488 290.87 12.4815 291.311 12.8463L294.412 15.4112C294.698 15.6475 294.972 15.8969 295.235 16.1586L301.532 22.4348V16C301.532 9.37258 306.905 4 313.532 4H339.204C342.394 4 345.452 5.26986 347.704 7.52907L349.812 9.64499C351.933 6.25487 355.7 4 359.993 4H381.366C384.566 4 387.633 5.27761 389.886 7.54902L400.669 18.4197V16C400.669 9.37258 406.042 4 412.669 4H438.341C441.554 4 444.632 5.28819 446.887 7.5762L448.941 9.65923C451.06 6.26118 454.831 4 459.13 4H496.488C496.683 4 496.878 4.00475 497.073 4.01426L503.459 4.32586C503.887 4.34674 504.313 4.39053 504.737 4.45705L510.655 5.38694C511.131 5.46177 511.602 5.56523 512.066 5.69676L517.499 7.23759C518.014 7.38368 518.519 7.56408 519.01 7.77759L523.942 9.92199C524.476 10.1542 524.992 10.4249 525.487 10.7321L529.901 13.4727C530.423 13.797 530.92 14.161 531.386 14.5615L535.266 17.891C535.532 18.1196 535.788 18.3598 536.034 18.6108L545.299 28.0942V16C545.299 9.37258 550.671 4 557.299 4H582.971C586.217 4 589.325 5.31554 591.586 7.64635L606.864 23.4031C609.035 25.642 610.25 28.6381 610.25 31.7567V31.8292L616.632 12.2765C618.243 7.34002 622.846 4 628.039 4H660.25C663.515 4 666.639 5.33048 668.902 7.68456L684.046 23.4413C685.299 24.7448 686.241 26.3145 686.802 28.0332L715.27 115.25C716.463 118.904 715.833 122.909 713.575 126.021C711.318 129.132 707.706 130.974 703.862 130.974H676.905C673.66 130.974 670.553 129.659 668.293 127.33L655.416 114.059L653.339 122.008C651.958 127.289 647.188 130.974 641.729 130.974H614.772C611.692 130.974 608.736 129.79 606.511 127.677C604.359 129.72 601.451 130.974 598.25 130.974H572.622C569.402 130.974 566.317 129.679 564.06 127.381L551.981 115.081C551.634 115.49 551.26 115.876 550.861 116.236L546.989 119.727C546.535 120.136 546.051 120.51 545.54 120.846L541.134 123.739C540.641 124.063 540.124 124.35 539.588 124.598L534.665 126.877C534.162 127.11 533.643 127.308 533.113 127.469L527.689 129.117C527.202 129.265 526.706 129.382 526.205 129.467L520.297 130.468C519.843 130.545 519.386 130.595 518.926 130.62L512.551 130.957C512.34 130.968 512.129 130.974 511.917 130.974H474.625C471.428 130.974 468.363 129.698 466.11 127.429L464.042 125.346C461.919 128.727 458.158 130.974 453.872 130.974H432.778C429.59 130.974 426.534 129.705 424.283 127.449L413.288 116.428V118.974C413.288 125.601 407.915 130.974 401.288 130.974H375.661C372.487 130.974 369.442 129.716 367.193 127.476L365.069 125.36C362.944 128.733 359.188 130.974 354.908 130.974H329.28C326.117 130.974 323.081 129.724 320.834 127.498L305.086 111.893C302.812 109.64 301.532 106.571 301.532 103.369V101.922C301.254 102.067 300.97 102.202 300.682 102.326L296.79 103.991C296.321 104.192 295.839 104.363 295.348 104.502L291.087 105.713C290.632 105.842 290.171 105.944 289.705 106.019L285.092 106.758C284.664 106.827 284.232 106.872 283.799 106.894L278.852 107.144C278.651 107.155 278.448 107.16 278.246 107.16H276.889V118.974C276.889 125.601 271.516 130.974 264.889 130.974H239.262C236.185 130.974 233.228 129.792 231 127.677C228.791 129.775 225.841 130.974 222.739 130.974H195.782C192.649 130.974 189.641 129.748 187.399 127.56L174.146 114.619L172.216 122.008C170.835 127.289 166.064 130.974 160.605 130.974H133.649C131.468 130.974 129.347 130.38 127.503 129.28ZM239.262 118.974H264.889V95.1597H278.246L283.193 94.9095L287.807 94.1703L292.068 92.9593L295.96 91.2937L299.463 89.1908L302.559 86.6677L305.229 83.7417L307.455 80.4299L309.219 76.7496L310.501 72.7181L311.284 68.3524L311.549 63.6698V63.5489L311.284 58.8603L310.501 54.4782L309.219 50.4218L307.455 46.7104L305.229 43.3633L302.559 40.3998L286.764 24.6582L283.663 22.0932L280.154 19.9512L276.255 18.2516L271.986 17.0136L267.364 16.2566L262.409 16H223.356V103.369L239.262 118.974ZM313.532 103.369L329.28 118.974H354.908V31.7567L339.204 16H313.532V103.369ZM375.661 118.974H401.288V80.1362L417.21 103.369L432.778 118.974H453.872V31.7567L438.341 16H412.669V54.4359L396.997 31.7567L381.366 16H359.993V103.369L375.661 118.974ZM474.625 118.974H511.917L518.292 118.636L524.2 117.636L529.624 115.987L534.547 113.709L538.953 110.815L542.826 107.324L546.148 103.25L548.903 98.6116L551.075 93.4239L552.647 87.7036L553.602 81.467L553.924 74.7305V74.6096L553.602 67.9132L552.647 61.7605L551.075 56.159L548.903 51.1159L546.148 46.6385L542.826 42.7344L527.45 26.9968L523.571 23.6673L519.157 20.9267L514.225 18.7823L508.792 17.2415L502.874 16.3116L496.488 16H459.13V103.369L474.625 118.974ZM572.622 118.974H598.25V31.7567L582.971 16H557.299V103.369L572.622 118.974ZM614.772 118.974H641.729L646.262 101.627H661.309L661.764 103.369L676.905 118.974H703.862L675.394 31.7567L660.25 16H628.039L599.522 103.369L614.772 118.974ZM264.889 58.4261L265.001 58.3638L266.254 57.3989L267.33 56.26L268.224 54.9473L268.929 53.4615L269.44 51.8028L269.57 51.0375H264.889V58.4261ZM511.854 66.4126L511.161 69.5802L510.194 72.4073L508.955 74.8954L507.447 77.0464L505.671 78.8618L503.63 80.3434L501.326 81.4928L500.252 81.8356V52.1255H508.291L511.24 52.2885L511.843 52.3959L512.26 55.4066L512.412 58.9277V59.0488L512.272 62.9027L511.854 66.4126Z"/>
</mask>
<path fill-rule="evenodd" clip-rule="evenodd" d="M133.649 118.974H160.605L165.139 101.627H179.346L179.801 103.369L195.782 118.974H222.739L194.271 31.7567L178.287 16H146.076L117.559 103.369L133.649 118.974ZM92.8894 31.7567L76.7285 16H44.5176L16 103.369L32.2667 118.974H59.2235L63.7567 101.627H77.7869L78.2422 103.369L94.4004 118.974H121.357L92.8894 31.7567ZM127.503 129.28C125.669 130.374 123.551 130.974 121.357 130.974H94.4004C91.2903 130.974 88.3016 129.766 86.0643 127.606L72.7348 114.733L70.8337 122.008C69.4535 127.289 64.6824 130.974 59.2235 130.974H32.2667C29.1704 130.974 26.1939 129.777 23.9595 127.633L7.69282 112.029C4.3674 108.839 3.16245 104.026 4.59231 99.6456L33.1099 12.2765C34.7212 7.34002 39.3248 4 44.5176 4H76.7285C79.8585 4 82.8646 5.22293 85.1057 7.40796L101.267 23.1647C102.655 24.5187 103.695 26.1893 104.297 28.0332L116.911 66.6796L134.669 12.2765C136.28 7.34002 140.884 4 146.076 4H178.287C181.44 4 184.466 5.24081 186.712 7.45419L202.696 23.2109C204.061 24.5569 205.084 26.2105 205.679 28.0332L211.356 45.4259V16C211.356 9.37258 216.729 4 223.356 4H262.409C262.616 4 262.823 4.00535 263.029 4.01606L267.985 4.27268C268.427 4.29557 268.867 4.34289 269.304 4.41442L273.926 5.1714C274.399 5.24893 274.867 5.35479 275.328 5.48839L279.597 6.72637C280.093 6.87002 280.578 7.04546 281.051 7.2516L284.949 8.95126C285.452 9.1702 285.938 9.42327 286.406 9.70869L289.915 11.8507C290.403 12.1488 290.87 12.4815 291.311 12.8463L294.412 15.4112C294.698 15.6475 294.972 15.8969 295.235 16.1586L301.532 22.4348V16C301.532 9.37258 306.905 4 313.532 4H339.204C342.394 4 345.452 5.26986 347.704 7.52907L349.812 9.64499C351.933 6.25487 355.7 4 359.993 4H381.366C384.566 4 387.633 5.27761 389.886 7.54902L400.669 18.4197V16C400.669 9.37258 406.042 4 412.669 4H438.341C441.554 4 444.632 5.28819 446.887 7.5762L448.941 9.65923C451.06 6.26118 454.831 4 459.13 4H496.488C496.683 4 496.878 4.00475 497.073 4.01426L503.459 4.32586C503.887 4.34674 504.313 4.39053 504.737 4.45705L510.655 5.38694C511.131 5.46177 511.602 5.56523 512.066 5.69676L517.499 7.23759C518.014 7.38368 518.519 7.56408 519.01 7.77759L523.942 9.92199C524.476 10.1542 524.992 10.4249 525.487 10.7321L529.901 13.4727C530.423 13.797 530.92 14.161 531.386 14.5615L535.266 17.891C535.532 18.1196 535.788 18.3598 536.034 18.6108L545.299 28.0942V16C545.299 9.37258 550.671 4 557.299 4H582.971C586.217 4 589.325 5.31554 591.586 7.64635L606.864 23.4031C609.035 25.642 610.25 28.6381 610.25 31.7567V31.8292L616.632 12.2765C618.243 7.34002 622.846 4 628.039 4H660.25C663.515 4 666.639 5.33048 668.902 7.68456L684.046 23.4413C685.299 24.7448 686.241 26.3145 686.802 28.0332L715.27 115.25C716.463 118.904 715.833 122.909 713.575 126.021C711.318 129.132 707.706 130.974 703.862 130.974H676.905C673.66 130.974 670.553 129.659 668.293 127.33L655.416 114.059L653.339 122.008C651.958 127.289 647.188 130.974 641.729 130.974H614.772C611.692 130.974 608.736 129.79 606.511 127.677C604.359 129.72 601.451 130.974 598.25 130.974H572.622C569.402 130.974 566.317 129.679 564.06 127.381L551.981 115.081C551.634 115.49 551.26 115.876 550.861 116.236L546.989 119.727C546.535 120.136 546.051 120.51 545.54 120.846L541.134 123.739C540.641 124.063 540.124 124.35 539.588 124.598L534.665 126.877C534.162 127.11 533.643 127.308 533.113 127.469L527.689 129.117C527.202 129.265 526.706 129.382 526.205 129.467L520.297 130.468C519.843 130.545 519.386 130.595 518.926 130.62L512.551 130.957C512.34 130.968 512.129 130.974 511.917 130.974H474.625C471.428 130.974 468.363 129.698 466.11 127.429L464.042 125.346C461.919 128.727 458.158 130.974 453.872 130.974H432.778C429.59 130.974 426.534 129.705 424.283 127.449L413.288 116.428V118.974C413.288 125.601 407.915 130.974 401.288 130.974H375.661C372.487 130.974 369.442 129.716 367.193 127.476L365.069 125.36C362.944 128.733 359.188 130.974 354.908 130.974H329.28C326.117 130.974 323.081 129.724 320.834 127.498L305.086 111.893C302.812 109.64 301.532 106.571 301.532 103.369V101.922C301.254 102.067 300.97 102.202 300.682 102.326L296.79 103.991C296.321 104.192 295.839 104.363 295.348 104.502L291.087 105.713C290.632 105.842 290.171 105.944 289.705 106.019L285.092 106.758C284.664 106.827 284.232 106.872 283.799 106.894L278.852 107.144C278.651 107.155 278.448 107.16 278.246 107.16H276.889V118.974C276.889 125.601 271.516 130.974 264.889 130.974H239.262C236.185 130.974 233.228 129.792 231 127.677C228.791 129.775 225.841 130.974 222.739 130.974H195.782C192.649 130.974 189.641 129.748 187.399 127.56L174.146 114.619L172.216 122.008C170.835 127.289 166.064 130.974 160.605 130.974H133.649C131.468 130.974 129.347 130.38 127.503 129.28ZM239.262 118.974H264.889V95.1597H278.246L283.193 94.9095L287.807 94.1703L292.068 92.9593L295.96 91.2937L299.463 89.1908L302.559 86.6677L305.229 83.7417L307.455 80.4299L309.219 76.7496L310.501 72.7181L311.284 68.3524L311.549 63.6698V63.5489L311.284 58.8603L310.501 54.4782L309.219 50.4218L307.455 46.7104L305.229 43.3633L302.559 40.3998L286.764 24.6582L283.663 22.0932L280.154 19.9512L276.255 18.2516L271.986 17.0136L267.364 16.2566L262.409 16H223.356V103.369L239.262 118.974ZM313.532 103.369L329.28 118.974H354.908V31.7567L339.204 16H313.532V103.369ZM375.661 118.974H401.288V80.1362L417.21 103.369L432.778 118.974H453.872V31.7567L438.341 16H412.669V54.4359L396.997 31.7567L381.366 16H359.993V103.369L375.661 118.974ZM474.625 118.974H511.917L518.292 118.636L524.2 117.636L529.624 115.987L534.547 113.709L538.953 110.815L542.826 107.324L546.148 103.25L548.903 98.6116L551.075 93.4239L552.647 87.7036L553.602 81.467L553.924 74.7305V74.6096L553.602 67.9132L552.647 61.7605L551.075 56.159L548.903 51.1159L546.148 46.6385L542.826 42.7344L527.45 26.9968L523.571 23.6673L519.157 20.9267L514.225 18.7823L508.792 17.2415L502.874 16.3116L496.488 16H459.13V103.369L474.625 118.974ZM572.622 118.974H598.25V31.7567L582.971 16H557.299V103.369L572.622 118.974ZM614.772 118.974H641.729L646.262 101.627H661.309L661.764 103.369L676.905 118.974H703.862L675.394 31.7567L660.25 16H628.039L599.522 103.369L614.772 118.974ZM264.889 58.4261L265.001 58.3638L266.254 57.3989L267.33 56.26L268.224 54.9473L268.929 53.4615L269.44 51.8028L269.57 51.0375H264.889V58.4261ZM511.854 66.4126L511.161 69.5802L510.194 72.4073L508.955 74.8954L507.447 77.0464L505.671 78.8618L503.63 80.3434L501.326 81.4928L500.252 81.8356V52.1255H508.291L511.24 52.2885L511.843 52.3959L512.26 55.4066L512.412 58.9277V59.0488L512.272 62.9027L511.854 66.4126Z" fill="#FFDC62"/>
<path d="M122.771 117.559L107.167 101.955L104.339 104.783L119.943 120.388L122.771 117.559ZM60.6378 117.559L45.0333 101.955L42.2049 104.783L57.8093 120.388L60.6378 117.559ZM65.1709 100.213L49.5439 84.5858L46.7155 87.4142L62.3424 103.041L65.1709 100.213ZM162.02 117.559L146.415 101.955L143.587 104.783L159.191 120.388L162.02 117.559ZM166.553 100.213L151.426 85.0858L148.597 87.9142L163.724 103.041L166.553 100.213ZM224.153 117.559L208.549 101.955L205.721 104.783L221.325 120.388L224.153 117.559ZM266.303 117.559L250.698 101.955L247.87 104.783L263.474 120.388L266.303 117.559ZM266.303 93.7455L251.573 79.0157L248.745 81.8441L263.474 96.5739L266.303 93.7455ZM266.303 49.6233L251.573 34.8935L248.745 37.7219L263.474 52.4517L266.303 49.6233ZM356.322 117.559L340.717 101.955L337.889 104.783L353.493 120.388L356.322 117.559ZM402.702 117.559L387.098 101.955L384.269 104.783L399.874 120.388L402.702 117.559ZM455.286 117.559L439.682 101.955L436.853 104.783L452.458 120.388L455.286 117.559ZM501.666 50.7112L486.541 35.5858L483.713 38.4142L498.838 53.5397L501.666 50.7112ZM599.664 117.559L584.059 101.955L581.231 104.783L596.835 120.388L599.664 117.559ZM643.143 117.559L627.538 101.955L624.71 104.783L640.314 120.388L643.143 117.559ZM647.676 100.213L632.414 84.951L629.586 87.7794L644.848 103.041L647.676 100.213ZM705.277 117.559L689.672 101.955L686.844 104.783L702.448 120.388L705.277 117.559ZM133.649 118.974L130.864 121.845C131.61 122.569 132.609 122.974 133.649 122.974V118.974ZM160.605 118.974V122.974C162.425 122.974 164.015 121.745 164.476 119.985L160.605 118.974ZM165.139 101.627V97.6269C163.319 97.6269 161.729 98.8551 161.269 100.616L165.139 101.627ZM179.346 101.627L183.216 100.616C182.756 98.8551 181.165 97.6269 179.346 97.6269V101.627ZM179.801 103.369L175.931 104.38C176.115 105.084 176.487 105.723 177.007 106.231L179.801 103.369ZM195.782 118.974L192.988 121.836C193.735 122.565 194.738 122.974 195.782 122.974V118.974ZM222.739 118.974V122.974C224.021 122.974 225.224 122.36 225.977 121.323C226.729 120.285 226.939 118.951 226.542 117.732L222.739 118.974ZM194.271 31.7567L198.074 30.5155C197.876 29.908 197.535 29.3568 197.079 28.9081L194.271 31.7567ZM178.287 16L181.096 13.1514C180.347 12.4136 179.338 12 178.287 12V16ZM146.076 16V12C144.346 12 142.811 13.1133 142.274 14.7588L146.076 16ZM117.559 103.369L113.756 102.128C113.282 103.581 113.677 105.177 114.774 106.241L117.559 103.369ZM92.8894 31.7567L96.692 30.5155C96.4913 29.9009 96.1447 29.3441 95.6818 28.8927L92.8894 31.7567ZM76.7285 16L79.5209 13.136C78.7739 12.4076 77.7718 12 76.7285 12V16ZM44.5176 16V12C42.7867 12 41.2521 13.1133 40.715 14.7588L44.5176 16ZM16 103.369L12.1974 102.128C11.7208 103.588 12.1225 105.192 13.2309 106.256L16 103.369ZM32.2667 118.974L29.4976 121.86C30.2424 122.575 31.2346 122.974 32.2667 122.974V118.974ZM59.2235 118.974V122.974C61.0432 122.974 62.6335 121.745 63.0936 119.985L59.2235 118.974ZM63.7567 101.627V97.6269C61.937 97.6269 60.3467 98.8551 59.8866 100.616L63.7567 101.627ZM77.7869 101.627L81.657 100.616C81.1969 98.8551 79.6065 97.6269 77.7869 97.6269V101.627ZM78.2422 103.369L74.3721 104.38C74.5578 105.091 74.9354 105.736 75.4635 106.246L78.2422 103.369ZM94.4004 118.974L91.6217 121.851C92.3675 122.571 93.3637 122.974 94.4004 122.974V118.974ZM121.357 118.974V122.974C122.639 122.974 123.842 122.36 124.595 121.323C125.347 120.285 125.557 118.951 125.16 117.732L121.357 118.974ZM127.503 129.28L129.551 125.845C128.289 125.092 126.717 125.092 125.455 125.845L127.503 129.28ZM86.0643 127.606L83.2856 130.483L83.2856 130.483L86.0643 127.606ZM72.7348 114.733L75.5135 111.855C74.4913 110.868 73.0221 110.498 71.6539 110.882C70.2858 111.266 69.224 112.347 68.8647 113.721L72.7348 114.733ZM70.8337 122.008L66.9636 120.996L66.9636 120.996L70.8337 122.008ZM23.9595 127.633L21.1905 130.52L21.1905 130.52L23.9595 127.633ZM7.69282 112.029L4.92376 114.915L4.92376 114.915L7.69282 112.029ZM4.59231 99.6456L0.789745 98.4045L0.789744 98.4045L4.59231 99.6456ZM33.1099 12.2765L29.3073 11.0353L29.3073 11.0353L33.1099 12.2765ZM85.1057 7.40796L82.3133 10.272L82.3133 10.272L85.1057 7.40796ZM101.267 23.1647L104.059 20.3007L104.059 20.3007L101.267 23.1647ZM104.297 28.0332L100.495 29.2744L100.495 29.2744L104.297 28.0332ZM116.911 66.6796L113.109 67.9208C113.646 69.5663 115.18 70.6796 116.911 70.6796C118.642 70.6796 120.177 69.5663 120.714 67.9208L116.911 66.6796ZM134.669 12.2765L138.471 13.5177L138.471 13.5177L134.669 12.2765ZM186.712 7.45419L183.904 10.3028L183.904 10.3028L186.712 7.45419ZM202.696 23.2109L199.888 26.0595L199.888 26.0595L202.696 23.2109ZM205.679 28.0332L209.482 26.792L209.482 26.792L205.679 28.0332ZM211.356 45.4259L207.554 46.6671C208.164 48.5366 210.042 49.6852 211.984 49.3763C213.927 49.0673 215.356 47.3925 215.356 45.4259H211.356ZM263.029 4.01606L262.823 8.01071L262.823 8.01071L263.029 4.01606ZM267.985 4.27268L267.778 8.26733L267.778 8.26733L267.985 4.27268ZM269.304 4.41442L268.657 8.36182L268.657 8.36182L269.304 4.41442ZM273.926 5.1714L273.279 9.1188L273.279 9.1188L273.926 5.1714ZM275.328 5.48839L276.442 1.64665L276.442 1.64665L275.328 5.48839ZM279.597 6.72637L278.483 10.5681L278.483 10.5681L279.597 6.72637ZM281.051 7.2516L282.65 3.58494L282.65 3.58493L281.051 7.2516ZM284.949 8.95126L286.548 5.2846L286.548 5.28459L284.949 8.95126ZM286.406 9.70869L284.322 13.1229L284.322 13.1229L286.406 9.70869ZM289.915 11.8507L287.831 15.2649L287.831 15.2649L289.915 11.8507ZM291.311 12.8463L293.86 9.76392L293.86 9.76387L291.311 12.8463ZM294.412 15.4112L291.863 18.4935L291.863 18.4935L294.412 15.4112ZM295.235 16.1586L292.411 18.9917L292.411 18.9918L295.235 16.1586ZM301.532 22.4348L298.709 25.268C299.854 26.4092 301.573 26.749 303.066 26.1291C304.559 25.5091 305.532 24.0514 305.532 22.4348H301.532ZM347.704 7.52907L344.87 10.3527L344.87 10.3527L347.704 7.52907ZM349.812 9.64499L346.979 12.4686C347.84 13.3327 349.049 13.7566 350.261 13.6198C351.473 13.483 352.557 12.8005 353.204 11.7663L349.812 9.64499ZM389.886 7.54902L387.046 10.366L387.046 10.366L389.886 7.54902ZM400.669 18.4197L397.829 21.2367C398.971 22.3873 400.694 22.7355 402.192 22.1183C403.691 21.501 404.669 20.0404 404.669 18.4197H400.669ZM446.887 7.5762L449.736 4.76827L449.736 4.76826L446.887 7.5762ZM448.941 9.65923L446.092 12.4672C446.952 13.3394 448.164 13.7697 449.381 13.6349C450.598 13.5001 451.687 12.815 452.335 11.7758L448.941 9.65923ZM497.073 4.01426L496.878 8.00951L496.878 8.00951L497.073 4.01426ZM503.459 4.32586L503.264 8.32111L503.264 8.32111L503.459 4.32586ZM504.737 4.45705L504.116 8.40857L504.116 8.40857L504.737 4.45705ZM510.655 5.38694L511.276 1.43542L511.276 1.43542L510.655 5.38694ZM512.066 5.69676L510.975 9.54499L510.975 9.54501L512.066 5.69676ZM517.499 7.23759L516.408 11.0858L516.408 11.0858L517.499 7.23759ZM519.01 7.77759L517.415 11.4458L517.415 11.4458L519.01 7.77759ZM523.942 9.92199L522.347 13.5902L522.347 13.5902L523.942 9.92199ZM525.487 10.7321L527.597 7.33389L527.597 7.33387L525.487 10.7321ZM529.901 13.4727L527.791 16.8709L527.791 16.8709L529.901 13.4727ZM531.386 14.5615L528.781 17.5968L528.781 17.5968L531.386 14.5615ZM535.266 17.891L532.66 20.9263L532.66 20.9263L535.266 17.891ZM536.034 18.6108L538.895 15.8155L538.895 15.8155L536.034 18.6108ZM545.299 28.0942L542.438 30.8896C543.574 32.0529 545.302 32.4122 546.808 31.7986C548.314 31.185 549.299 29.7206 549.299 28.0942H545.299ZM591.586 7.64635L594.457 4.8618L594.457 4.8618L591.586 7.64635ZM606.864 23.4031L609.736 20.6185L609.736 20.6185L606.864 23.4031ZM610.25 31.8292H606.25C606.25 33.7958 607.679 35.4706 609.621 35.7796C611.563 36.0885 613.442 34.9399 614.052 33.0704L610.25 31.8292ZM616.632 12.2765L612.829 11.0353L612.829 11.0353L616.632 12.2765ZM668.902 7.68456L671.786 4.91274L671.786 4.91273L668.902 7.68456ZM684.046 23.4413L686.93 20.6695L686.93 20.6694L684.046 23.4413ZM686.802 28.0332L690.605 26.792L690.605 26.7919L686.802 28.0332ZM715.27 115.25L719.073 114.009L719.073 114.009L715.27 115.25ZM713.575 126.021L716.813 128.37L716.813 128.369L713.575 126.021ZM668.293 127.33L665.423 130.116L665.423 130.116L668.293 127.33ZM655.416 114.059L658.287 111.273C657.281 110.237 655.794 109.823 654.398 110.191C653.001 110.558 651.911 111.65 651.546 113.048L655.416 114.059ZM653.339 122.008L649.469 120.996L649.469 120.996L653.339 122.008ZM606.511 127.677L609.264 124.776C607.721 123.311 605.3 123.311 603.756 124.777L606.511 127.677ZM564.06 127.381L561.206 130.184L561.206 130.184L564.06 127.381ZM551.981 115.081L554.835 112.278C554.047 111.476 552.958 111.042 551.834 111.084C550.711 111.125 549.656 111.637 548.929 112.495L551.981 115.081ZM550.861 116.236L553.54 119.206L553.54 119.206L550.861 116.236ZM546.989 119.727L544.31 116.757L544.31 116.757L546.989 119.727ZM545.54 120.846L547.736 124.189L547.736 124.189L545.54 120.846ZM541.134 123.739L543.33 127.083L543.33 127.083L541.134 123.739ZM539.588 124.598L537.908 120.968L537.908 120.968L539.588 124.598ZM534.665 126.877L532.985 123.247L532.984 123.247L534.665 126.877ZM533.113 127.469L531.95 123.642L531.95 123.642L533.113 127.469ZM527.689 129.117L526.526 125.29L526.526 125.29L527.689 129.117ZM526.205 129.467L526.873 133.411L526.873 133.411L526.205 129.467ZM520.297 130.468L520.965 134.412L520.965 134.412L520.297 130.468ZM518.926 130.62L518.715 126.625L518.715 126.625L518.926 130.62ZM512.551 130.957L512.763 134.951L512.763 134.951L512.551 130.957ZM466.11 127.429L468.948 124.61L468.948 124.61L466.11 127.429ZM464.042 125.346L466.88 122.528C466.021 121.662 464.813 121.236 463.6 121.371C462.388 121.505 461.303 122.186 460.654 123.219L464.042 125.346ZM424.283 127.449L427.114 124.624L427.114 124.624L424.283 127.449ZM413.288 116.428L416.12 113.603C414.976 112.457 413.255 112.113 411.759 112.732C410.264 113.35 409.288 114.809 409.288 116.428H413.288ZM367.193 127.476L370.015 124.642L370.015 124.642L367.193 127.476ZM365.069 125.36L367.891 122.526C367.03 121.669 365.826 121.249 364.619 121.386C363.412 121.522 362.332 122.2 361.684 123.229L365.069 125.36ZM320.834 127.498L318.019 130.339L318.019 130.339L320.834 127.498ZM305.086 111.893L302.271 114.735L302.271 114.735L305.086 111.893ZM301.532 101.922H305.532C305.532 100.521 304.8 99.2234 303.602 98.4988C302.404 97.7743 300.915 97.7288 299.675 98.3789L301.532 101.922ZM300.682 102.326L302.255 106.003L302.256 106.003L300.682 102.326ZM296.79 103.991L298.364 107.669L298.364 107.669L296.79 103.991ZM295.348 104.502L296.442 108.35L296.442 108.35L295.348 104.502ZM291.087 105.713L292.18 109.561L292.18 109.561L291.087 105.713ZM289.705 106.019L289.072 102.07L289.072 102.07L289.705 106.019ZM285.092 106.758L285.724 110.708L285.724 110.708L285.092 106.758ZM283.799 106.894L284.001 110.889L284.001 110.889L283.799 106.894ZM278.852 107.144L279.054 111.139L279.054 111.139L278.852 107.144ZM276.889 107.16V103.16C274.68 103.16 272.889 104.951 272.889 107.16H276.889ZM231 127.677L233.754 124.776C232.211 123.311 229.79 123.311 228.247 124.776L231 127.677ZM187.399 127.56L184.604 130.421L184.604 130.421L187.399 127.56ZM174.146 114.619L176.941 111.757C175.921 110.762 174.449 110.384 173.076 110.765C171.703 111.147 170.637 112.229 170.276 113.608L174.146 114.619ZM172.216 122.008L176.086 123.019L176.086 123.019L172.216 122.008ZM239.262 118.974L236.46 121.829C237.208 122.563 238.214 122.974 239.262 122.974V118.974ZM264.889 118.974V122.974C267.098 122.974 268.889 121.183 268.889 118.974H264.889ZM264.889 95.1597V91.1597C262.68 91.1597 260.889 92.9506 260.889 95.1597H264.889ZM278.246 95.1597V99.1597C278.314 99.1597 278.381 99.158 278.448 99.1546L278.246 95.1597ZM283.193 94.9095L283.395 98.9044C283.539 98.8971 283.683 98.882 283.826 98.8591L283.193 94.9095ZM287.807 94.1703L288.439 98.1199C288.595 98.095 288.749 98.061 288.9 98.018L287.807 94.1703ZM292.068 92.9593L293.162 96.807C293.325 96.7605 293.486 96.7036 293.642 96.6366L292.068 92.9593ZM295.96 91.2937L297.534 94.9711C297.701 94.8995 297.863 94.8167 298.019 94.7232L295.96 91.2937ZM299.463 89.1908L301.522 92.6203C301.685 92.522 301.842 92.4121 301.99 92.2914L299.463 89.1908ZM302.559 86.6677L305.086 89.7684C305.238 89.6443 305.381 89.5091 305.513 89.364L302.559 86.6677ZM305.229 83.7417L308.184 86.438C308.317 86.2923 308.439 86.1369 308.549 85.9731L305.229 83.7417ZM307.455 80.4299L310.775 82.6614C310.883 82.5009 310.979 82.3328 311.062 82.1585L307.455 80.4299ZM309.219 76.7496L312.826 78.4782C312.906 78.3112 312.974 78.1388 313.03 77.9623L309.219 76.7496ZM310.501 72.7181L314.313 73.9307C314.366 73.7648 314.408 73.5956 314.438 73.4243L310.501 72.7181ZM311.284 68.3524L315.221 69.0586C315.25 68.8998 315.269 68.7395 315.278 68.5785L311.284 68.3524ZM311.549 63.6698L315.543 63.8959C315.547 63.8206 315.549 63.7452 315.549 63.6698H311.549ZM311.549 63.5489H315.549C315.549 63.4735 315.547 63.3982 315.543 63.323L311.549 63.5489ZM311.284 58.8603L315.278 58.6345C315.269 58.4742 315.25 58.3147 315.222 58.1567L311.284 58.8603ZM310.501 54.4782L314.439 53.7745C314.408 53.6046 314.367 53.4369 314.315 53.2723L310.501 54.4782ZM309.219 50.4218L313.033 49.2159C312.977 49.0412 312.91 48.8705 312.831 48.705L309.219 50.4218ZM307.455 46.7104L311.068 44.9936C310.986 44.8209 310.892 44.6544 310.786 44.4952L307.455 46.7104ZM305.229 43.3633L308.56 41.1481C308.451 40.9854 308.331 40.8309 308.201 40.6857L305.229 43.3633ZM302.559 40.3998L305.53 37.7222C305.482 37.6691 305.433 37.6172 305.382 37.5666L302.559 40.3998ZM286.764 24.6582L289.587 21.825C289.5 21.7378 289.408 21.6546 289.313 21.5759L286.764 24.6582ZM283.663 22.0932L286.212 19.0109C286.065 18.8893 285.909 18.7784 285.747 18.679L283.663 22.0932ZM280.154 19.9512L282.238 16.5371C282.082 16.4419 281.92 16.3576 281.752 16.2846L280.154 19.9512ZM276.255 18.2516L277.854 14.5849C277.696 14.5162 277.534 14.4577 277.369 14.4098L276.255 18.2516ZM271.986 17.0136L273.1 13.1719C272.946 13.1273 272.79 13.092 272.632 13.0662L271.986 17.0136ZM267.364 16.2566L268.011 12.3092C267.865 12.2854 267.718 12.2696 267.571 12.262L267.364 16.2566ZM262.409 16L262.616 12.0054C262.547 12.0018 262.478 12 262.409 12V16ZM223.356 16V12C221.147 12 219.356 13.7909 219.356 16H223.356ZM223.356 103.369H219.356C219.356 104.443 219.788 105.472 220.555 106.224L223.356 103.369ZM313.532 103.369H309.532C309.532 104.436 309.959 105.459 310.717 106.211L313.532 103.369ZM329.28 118.974L326.465 121.815C327.214 122.557 328.226 122.974 329.28 122.974V118.974ZM354.908 118.974V122.974C357.117 122.974 358.908 121.183 358.908 118.974H354.908ZM354.908 31.7567H358.908C358.908 30.6982 358.488 29.6828 357.741 28.9331L354.908 31.7567ZM339.204 16L342.037 13.1764C341.287 12.4233 340.267 12 339.204 12V16ZM313.532 16V12C311.323 12 309.532 13.7909 309.532 16H313.532ZM375.661 118.974L372.838 121.808C373.588 122.554 374.603 122.974 375.661 122.974V118.974ZM401.288 118.974V122.974C403.497 122.974 405.288 121.183 405.288 118.974H401.288ZM401.288 80.1362L404.587 77.8749C403.596 76.4288 401.779 75.7966 400.104 76.3153C398.43 76.8341 397.288 78.383 397.288 80.1362H401.288ZM417.21 103.369L413.911 105.63C414.049 105.832 414.206 106.021 414.378 106.194L417.21 103.369ZM432.778 118.974L429.946 121.799C430.697 122.551 431.715 122.974 432.778 122.974V118.974ZM453.872 118.974V122.974C456.081 122.974 457.872 121.183 457.872 118.974H453.872ZM453.872 31.7567H457.872C457.872 30.7058 457.458 29.6972 456.721 28.9488L453.872 31.7567ZM438.341 16L441.19 13.1921C440.438 12.4294 439.412 12 438.341 12V16ZM412.669 16V12C410.46 12 408.669 13.7909 408.669 16H412.669ZM412.669 54.4359L409.379 56.71C410.374 58.1499 412.189 58.7757 413.86 58.2545C415.531 57.7333 416.669 56.1863 416.669 54.4359H412.669ZM396.997 31.7567L400.287 29.4827C400.153 29.2887 400.002 29.1071 399.836 28.9397L396.997 31.7567ZM381.366 16L384.206 13.183C383.455 12.4259 382.433 12 381.366 12V16ZM359.993 16V12C357.784 12 355.993 13.7909 355.993 16H359.993ZM359.993 103.369H355.993C355.993 104.433 356.417 105.453 357.171 106.203L359.993 103.369ZM474.625 118.974L471.787 121.792C472.538 122.548 473.559 122.974 474.625 122.974V118.974ZM511.917 118.974V122.974C511.988 122.974 512.058 122.972 512.129 122.968L511.917 118.974ZM518.292 118.636L518.504 122.631C518.657 122.623 518.809 122.606 518.961 122.58L518.292 118.636ZM524.2 117.636L524.868 121.579C525.036 121.551 525.201 121.512 525.363 121.463L524.2 117.636ZM529.624 115.987L530.787 119.815C530.964 119.761 531.137 119.695 531.304 119.617L529.624 115.987ZM534.547 113.709L536.227 117.338C536.406 117.256 536.578 117.16 536.743 117.052L534.547 113.709ZM538.953 110.815L541.149 114.159C541.319 114.047 541.481 113.922 541.632 113.786L538.953 110.815ZM542.826 107.324L545.504 110.294C545.656 110.158 545.796 110.01 545.925 109.852L542.826 107.324ZM546.148 103.25L549.248 105.778C549.372 105.625 549.486 105.463 549.587 105.293L546.148 103.25ZM548.903 98.6116L552.342 100.654C552.437 100.494 552.521 100.328 552.593 100.156L548.903 98.6116ZM551.075 93.4239L554.765 94.9686C554.831 94.8108 554.887 94.6488 554.932 94.4838L551.075 93.4239ZM552.647 87.7036L556.504 88.7635C556.545 88.614 556.577 88.4624 556.601 88.3092L552.647 87.7036ZM553.602 81.467L557.556 82.0726C557.577 81.9352 557.591 81.7969 557.597 81.6581L553.602 81.467ZM553.924 74.7305L557.92 74.9216C557.923 74.858 557.924 74.7942 557.924 74.7305H553.924ZM553.924 74.6096H557.924C557.924 74.5456 557.923 74.4815 557.92 74.4174L553.924 74.6096ZM553.602 67.9132L557.597 67.721C557.591 67.5799 557.576 67.4392 557.555 67.2996L553.602 67.9132ZM552.647 61.7605L556.599 61.1469C556.575 60.9893 556.541 60.8333 556.498 60.6798L552.647 61.7605ZM551.075 56.159L554.926 55.0782C554.878 54.9073 554.819 54.7398 554.749 54.5768L551.075 56.159ZM548.903 51.1159L552.577 49.5337C552.5 49.356 552.411 49.1842 552.31 49.0194L548.903 51.1159ZM546.148 46.6385L549.554 44.5421C549.447 44.3679 549.327 44.2021 549.194 44.0463L546.148 46.6385ZM542.826 42.7344L545.872 40.1422C545.813 40.0723 545.751 40.0046 545.687 39.939L542.826 42.7344ZM527.45 26.9968L530.311 24.2015C530.229 24.1178 530.144 24.0377 530.055 23.9615L527.45 26.9968ZM523.571 23.6673L526.176 20.6321C526.021 20.4986 525.855 20.3772 525.681 20.2691L523.571 23.6673ZM519.157 20.9267L521.267 17.5285C521.102 17.4261 520.93 17.3359 520.752 17.2585L519.157 20.9267ZM514.225 18.7823L515.82 15.1141C515.657 15.0429 515.488 14.9828 515.317 14.9341L514.225 18.7823ZM508.792 17.2415L509.883 13.3932C509.729 13.3494 509.572 13.3149 509.413 13.29L508.792 17.2415ZM502.874 16.3116L503.495 12.3601C503.354 12.3379 503.212 12.3233 503.069 12.3164L502.874 16.3116ZM496.488 16L496.683 12.0048C496.618 12.0016 496.553 12 496.488 12V16ZM459.13 16V12C456.921 12 455.13 13.7909 455.13 16H459.13ZM459.13 103.369H455.13C455.13 104.425 455.548 105.438 456.292 106.188L459.13 103.369ZM572.622 118.974L569.768 121.776C570.52 122.542 571.549 122.974 572.622 122.974V118.974ZM598.25 118.974V122.974C600.459 122.974 602.25 121.183 602.25 118.974H598.25ZM598.25 31.7567H602.25C602.25 30.7172 601.845 29.7185 601.121 28.9722L598.25 31.7567ZM582.971 16L585.842 13.2155C585.089 12.4385 584.053 12 582.971 12V16ZM557.299 16V12C555.09 12 553.299 13.7909 553.299 16H557.299ZM557.299 103.369H553.299C553.299 104.417 553.71 105.424 554.445 106.172L557.299 103.369ZM614.772 118.974L611.911 121.769C612.664 122.539 613.695 122.974 614.772 122.974V118.974ZM641.729 118.974V122.974C643.548 122.974 645.139 121.745 645.599 119.985L641.729 118.974ZM646.262 101.627V97.6269C644.442 97.6269 642.852 98.8551 642.392 100.616L646.262 101.627ZM661.309 101.627L665.179 100.616C664.719 98.8551 663.128 97.6269 661.309 97.6269V101.627ZM661.764 103.369L657.894 104.38C658.068 105.048 658.413 105.659 658.893 106.155L661.764 103.369ZM676.905 118.974L674.035 121.759C674.788 122.535 675.824 122.974 676.905 122.974V118.974ZM703.862 118.974V122.974C705.144 122.974 706.347 122.36 707.1 121.323C707.852 120.285 708.062 118.951 707.665 117.732L703.862 118.974ZM675.394 31.7567L679.197 30.5155C679.01 29.9426 678.696 29.4194 678.278 28.9849L675.394 31.7567ZM660.25 16L663.134 13.2282C662.38 12.4435 661.339 12 660.25 12V16ZM628.039 16V12C626.308 12 624.774 13.1133 624.237 14.7588L628.039 16ZM599.522 103.369L595.719 102.128C595.257 103.544 595.62 105.1 596.661 106.165L599.522 103.369ZM265.001 58.3638L266.942 61.861C267.117 61.7642 267.283 61.6546 267.441 61.5329L265.001 58.3638ZM264.889 58.4261H260.889C260.889 59.8431 261.638 61.1544 262.86 61.8732C264.081 62.592 265.591 62.6111 266.83 61.9233L264.889 58.4261ZM266.254 57.3989L268.694 60.568C268.861 60.4398 269.017 60.2988 269.161 60.1461L266.254 57.3989ZM267.33 56.26L270.237 59.0072C270.383 58.8527 270.517 58.6869 270.636 58.5112L267.33 56.26ZM268.224 54.9473L271.53 57.1986C271.646 57.0282 271.749 56.849 271.837 56.6628L268.224 54.9473ZM268.929 53.4615L272.542 55.1769C272.625 55.0031 272.695 54.8235 272.752 54.6395L268.929 53.4615ZM269.44 51.8028L273.263 52.9809C273.314 52.8143 273.354 52.6445 273.384 52.4726L269.44 51.8028ZM269.57 51.0375L273.514 51.7072C273.711 50.5459 273.386 49.3567 272.626 48.4567C271.866 47.5567 270.748 47.0375 269.57 47.0375V51.0375ZM264.889 51.0375V47.0375C262.68 47.0375 260.889 48.8284 260.889 51.0375H264.889ZM511.854 66.4126L515.762 67.2679C515.79 67.1414 515.811 67.0137 515.826 66.8851L511.854 66.4126ZM511.161 69.5802L514.946 70.8749C514.995 70.7309 515.036 70.5842 515.069 70.4356L511.161 69.5802ZM510.194 72.4073L513.775 74.19C513.853 74.032 513.921 73.869 513.979 73.702L510.194 72.4073ZM508.955 74.8954L512.23 77.1919C512.345 77.0285 512.447 76.8568 512.536 76.6782L508.955 74.8954ZM507.447 77.0464L510.306 79.8433C510.458 79.6881 510.597 79.5207 510.722 79.3429L507.447 77.0464ZM505.671 78.8618L508.021 82.0989C508.203 81.9668 508.373 81.8195 508.531 81.6588L505.671 78.8618ZM503.63 80.3434L505.416 83.9228C505.613 83.8244 505.802 83.7099 505.98 83.5804L503.63 80.3434ZM501.326 81.4928L502.542 85.3033C502.738 85.241 502.928 85.1637 503.111 85.0722L501.326 81.4928ZM500.252 81.8356H496.252C496.252 83.1124 496.862 84.3124 497.893 85.0656C498.924 85.8187 500.252 86.0344 501.469 85.6461L500.252 81.8356ZM500.252 52.1255V48.1255C498.043 48.1255 496.252 49.9163 496.252 52.1255H500.252ZM508.291 52.1255L508.512 48.1316C508.438 48.1275 508.365 48.1255 508.291 48.1255V52.1255ZM511.24 52.2885L511.94 48.3503C511.782 48.3221 511.621 48.3035 511.461 48.2946L511.24 52.2885ZM511.843 52.3959L515.806 51.847C515.568 50.1298 514.251 48.7612 512.544 48.4577L511.843 52.3959ZM512.26 55.4066L516.257 55.2349C516.251 55.1087 516.24 54.9828 516.223 54.8577L512.26 55.4066ZM512.412 58.9277H516.412C516.412 58.8705 516.41 58.8133 516.408 58.7561L512.412 58.9277ZM512.412 59.0488L516.409 59.1937C516.411 59.1454 516.412 59.0971 516.412 59.0488L512.412 59.0488ZM512.272 62.9027L516.244 63.3752C516.257 63.2664 516.265 63.1571 516.269 63.0475L512.272 62.9027ZM179.346 97.6269H165.139V105.627H179.346V97.6269ZM183.671 102.358L183.216 100.616L175.476 102.638L175.931 104.38L183.671 102.358ZM198.577 116.112L182.596 100.507L177.007 106.231L192.988 121.836L198.577 116.112ZM175.479 18.8486L191.463 34.6053L197.079 28.9081L181.096 13.1514L175.479 18.8486ZM146.076 20H178.287V12H146.076V20ZM73.9361 18.864L90.097 34.6207L95.6818 28.8927L79.5209 13.136L73.9361 18.864ZM44.5176 20H76.7285V12H44.5176V20ZM19.8026 104.61L48.3201 17.2412L40.715 14.7588L12.1974 102.128L19.8026 104.61ZM35.0358 116.087L18.7691 100.483L13.2309 106.256L29.4976 121.86L35.0358 116.087ZM77.7869 97.6269H63.7567V105.627H77.7869V97.6269ZM82.1122 102.358L81.657 100.616L73.9169 102.638L74.3721 104.38L82.1122 102.358ZM97.1791 116.096L81.0209 100.492L75.4635 106.246L91.6217 121.851L97.1791 116.096ZM121.357 134.974C124.282 134.974 127.107 134.174 129.551 132.716L125.455 125.845C124.231 126.574 122.82 126.974 121.357 126.974V134.974ZM94.4004 134.974H121.357V126.974H94.4004V134.974ZM83.2856 130.483C86.2686 133.364 90.2535 134.974 94.4004 134.974V126.974C92.327 126.974 90.3345 126.169 88.843 124.728L83.2856 130.483ZM69.9561 117.61L83.2856 130.483L88.843 124.728L75.5135 111.855L69.9561 117.61ZM74.7037 123.019L76.6048 115.744L68.8647 113.721L66.9636 120.996L74.7037 123.019ZM59.2235 134.974C66.5021 134.974 72.8634 130.061 74.7037 123.019L66.9636 120.996C66.0435 124.517 62.8628 126.974 59.2235 126.974V134.974ZM32.2667 134.974H59.2235V126.974H32.2667V134.974ZM21.1905 130.52C24.1697 133.378 28.1383 134.974 32.2667 134.974V126.974C30.2025 126.974 28.2182 126.176 26.7286 124.747L21.1905 130.52ZM4.92376 114.915L21.1905 130.52L26.7286 124.747L10.4619 109.142L4.92376 114.915ZM0.789744 98.4045C-1.11674 104.245 0.489869 110.662 4.92376 114.915L10.4619 109.142C8.24494 107.016 7.44163 103.807 8.39487 100.887L0.789744 98.4045ZM29.3073 11.0353L0.789745 98.4045L8.39487 100.887L36.9125 13.5177L29.3073 11.0353ZM44.5176 0C37.5939 0 31.4557 4.45336 29.3073 11.0353L36.9125 13.5177C37.9866 10.2267 41.0557 8 44.5176 8V0ZM76.7285 0H44.5176V8H76.7285V0ZM87.8981 4.54394C84.91 1.63057 80.9018 0 76.7285 0V8C78.8152 8 80.8192 8.81529 82.3133 10.272L87.8981 4.54394ZM104.059 20.3007L87.8981 4.54394L82.3133 10.272L98.4742 26.0287L104.059 20.3007ZM108.1 26.792C107.297 24.3335 105.911 22.1061 104.059 20.3007L98.4742 26.0287C99.4 26.9314 100.093 28.0451 100.495 29.2744L108.1 26.792ZM120.714 65.4385L108.1 26.792L100.495 29.2744L113.109 67.9208L120.714 65.4385ZM130.866 11.0353L113.109 65.4385L120.714 67.9208L138.471 13.5177L130.866 11.0353ZM146.076 0C139.153 0 133.015 4.45336 130.866 11.0353L138.471 13.5177C139.546 10.2267 142.615 8 146.076 8V0ZM178.287 0H146.076V8H178.287V0ZM189.52 4.6056C186.526 1.65442 182.491 0 178.287 0V8C180.389 8 182.407 8.82721 183.904 10.3028L189.52 4.6056ZM205.504 20.3623L189.52 4.60559L183.904 10.3028L199.888 26.0595L205.504 20.3623ZM209.482 26.792C208.688 24.3618 207.324 22.157 205.504 20.3623L199.888 26.0595C200.798 26.9568 201.48 28.0592 201.876 29.2744L209.482 26.792ZM215.159 44.1848L209.482 26.792L201.876 29.2744L207.554 46.6671L215.159 44.1848ZM207.356 16V45.4259H215.356V16H207.356ZM223.356 0C214.52 0 207.356 7.16344 207.356 16H215.356C215.356 11.5817 218.938 8 223.356 8V0ZM262.409 0H223.356V8H262.409V0ZM263.236 0.0214107C262.961 0.00714002 262.685 0 262.409 0V8C262.547 8 262.685 8.00357 262.823 8.01071L263.236 0.0214107ZM268.192 0.278033L263.236 0.0214107L262.823 8.01071L267.778 8.26733L268.192 0.278033ZM269.95 0.467021C269.368 0.371642 268.781 0.308549 268.192 0.278033L267.778 8.26733C268.073 8.28259 268.366 8.31413 268.657 8.36182L269.95 0.467021ZM274.572 1.224L269.95 0.467018L268.657 8.36182L273.279 9.1188L274.572 1.224ZM276.442 1.64665C275.828 1.46851 275.203 1.32738 274.572 1.22399L273.279 9.1188C273.595 9.17049 273.907 9.24106 274.214 9.33013L276.442 1.64665ZM280.711 2.88464L276.442 1.64665L274.214 9.33012L278.483 10.5681L280.711 2.88464ZM282.65 3.58493C282.019 3.31009 281.372 3.07617 280.711 2.88463L278.483 10.5681C278.813 10.6639 279.137 10.7808 279.452 10.9183L282.65 3.58493ZM286.548 5.28459L282.65 3.58494L279.452 10.9183L283.351 12.6179L286.548 5.28459ZM288.49 6.29451C287.866 5.91396 287.218 5.57653 286.548 5.2846L283.351 12.6179C283.686 12.7639 284.01 12.9326 284.322 13.1229L288.49 6.29451ZM291.999 8.4365L288.49 6.29451L284.322 13.1229L287.831 15.2649L291.999 8.4365ZM293.86 9.76387C293.272 9.27766 292.65 8.83404 291.999 8.43645L287.831 15.2649C288.156 15.4636 288.467 15.6854 288.761 15.9286L293.86 9.76387ZM296.961 12.3289L293.86 9.76392L288.761 15.9286L291.863 18.4935L296.961 12.3289ZM298.058 13.3255C297.708 12.9765 297.342 12.644 296.961 12.3289L291.863 18.4935C292.053 18.6511 292.236 18.8173 292.411 18.9917L298.058 13.3255ZM304.356 19.6016L298.058 13.3254L292.411 18.9918L298.709 25.268L304.356 19.6016ZM297.532 16V22.4348H305.532V16H297.532ZM313.532 0C304.696 0 297.532 7.16344 297.532 16H305.532C305.532 11.5817 309.114 8 313.532 8V0ZM339.204 0H313.532V8H339.204V0ZM350.537 4.70543C347.535 1.69314 343.457 0 339.204 0V8C341.33 8 343.369 8.84657 344.87 10.3527L350.537 4.70543ZM352.646 6.82134L350.537 4.70542L344.87 10.3527L346.979 12.4686L352.646 6.82134ZM359.993 0C354.264 0 349.242 3.01394 346.421 7.52371L353.204 11.7663C354.624 9.49579 357.136 8 359.993 8V0ZM381.366 0H359.993V8H381.366V0ZM392.726 4.73203C389.722 1.70347 385.632 0 381.366 0V8C383.499 8 385.544 8.85174 387.046 10.366L392.726 4.73203ZM403.509 15.6027L392.726 4.73202L387.046 10.366L397.829 21.2367L403.509 15.6027ZM396.669 16V18.4197H404.669V16H396.669ZM412.669 0C403.833 0 396.669 7.16344 396.669 16H404.669C404.669 11.5817 408.251 8 412.669 8V0ZM438.341 0H412.669V8H438.341V0ZM449.736 4.76826C446.729 1.71758 442.625 0 438.341 0V8C440.483 8 442.535 8.85879 444.039 10.3841L449.736 4.76826ZM451.789 6.8513L449.736 4.76827L444.039 10.3841L446.092 12.4672L451.789 6.8513ZM459.13 0C453.393 0 448.365 3.02236 445.546 7.5427L452.335 11.7758C453.754 9.5 456.269 8 459.13 8V0ZM496.488 0H459.13V8H496.488V0ZM497.268 0.0190131C497.008 0.00633887 496.748 0 496.488 0V8C496.618 8 496.748 8.00317 496.878 8.00951L497.268 0.0190131ZM503.654 0.330612L497.268 0.0190123L496.878 8.00951L503.264 8.32111L503.654 0.330612ZM505.358 0.505534C504.793 0.416845 504.224 0.358455 503.654 0.330612L503.264 8.32111C503.549 8.33503 503.834 8.36422 504.116 8.40857L505.358 0.505534ZM511.276 1.43542L505.358 0.505533L504.116 8.40857L510.034 9.33846L511.276 1.43542ZM513.157 1.84853C512.539 1.67314 511.911 1.5352 511.276 1.43542L510.034 9.33845C510.351 9.38834 510.666 9.45732 510.975 9.54499L513.157 1.84853ZM518.591 3.38935L513.157 1.84852L510.975 9.54501L516.408 11.0858L518.591 3.38935ZM520.605 4.10935C519.951 3.82468 519.278 3.58413 518.591 3.38934L516.408 11.0858C516.751 11.1832 517.088 11.3035 517.415 11.4458L520.605 4.10935ZM525.537 6.25375L520.605 4.10934L517.415 11.4458L522.347 13.5902L525.537 6.25375ZM527.597 7.33387C526.938 6.92429 526.249 6.5633 525.537 6.25375L522.347 13.5902C522.703 13.7451 523.047 13.9256 523.377 14.1303L527.597 7.33387ZM532.011 10.0745L527.597 7.33389L523.377 14.1303L527.791 16.8709L532.011 10.0745ZM533.992 11.5262C533.37 10.9923 532.707 10.5069 532.011 10.0745L527.791 16.8709C528.139 17.0871 528.47 17.3298 528.781 17.5968L533.992 11.5262ZM537.871 14.8557L533.992 11.5262L528.781 17.5968L532.66 20.9263L537.871 14.8557ZM538.895 15.8155C538.567 15.4806 538.226 15.1604 537.871 14.8557L532.66 20.9263C532.838 21.0788 533.009 21.2389 533.172 21.4062L538.895 15.8155ZM548.16 25.2989L538.895 15.8155L533.172 21.4062L542.438 30.8896L548.16 25.2989ZM541.299 16V28.0942H549.299V16H541.299ZM557.299 0C548.462 0 541.299 7.16345 541.299 16H549.299C549.299 11.5817 552.88 8 557.299 8V0ZM582.971 0H557.299V8H582.971V0ZM594.457 4.8618C591.444 1.75405 587.299 0 582.971 0V8C585.135 8 587.207 8.87704 588.714 10.4309L594.457 4.8618ZM609.736 20.6185L594.457 4.8618L588.714 10.4309L603.993 26.1876L609.736 20.6185ZM614.25 31.7567C614.25 27.5985 612.631 23.6037 609.736 20.6185L603.993 26.1876C605.44 27.6802 606.25 29.6776 606.25 31.7567H614.25ZM614.25 31.8292V31.7567H606.25V31.8292H614.25ZM612.829 11.0353L606.447 30.5881L614.052 33.0704L620.434 13.5177L612.829 11.0353ZM628.039 0C621.116 0 614.977 4.45337 612.829 11.0353L620.434 13.5177C621.508 10.2267 624.577 8 628.039 8V0ZM660.25 0H628.039V8H660.25V0ZM671.786 4.91273C668.769 1.77397 664.604 0 660.25 0V8C662.427 8 664.51 8.88699 666.018 10.4564L671.786 4.91273ZM686.93 20.6694L671.786 4.91274L666.018 10.4564L681.162 26.2131L686.93 20.6694ZM690.605 26.7919C689.857 24.5004 688.601 22.4075 686.93 20.6695L681.162 26.2131C681.997 27.082 682.626 28.1286 683 29.2745L690.605 26.7919ZM719.073 114.009L690.605 26.792L683 29.2744L711.467 116.491L719.073 114.009ZM716.813 128.369C719.823 124.221 720.663 118.881 719.073 114.009L711.467 116.491C712.263 118.928 711.843 121.597 710.338 123.672L716.813 128.369ZM703.862 134.974C708.988 134.974 713.803 132.518 716.813 128.37L710.338 123.672C708.833 125.746 706.425 126.974 703.862 126.974V134.974ZM676.905 134.974H703.862V126.974H676.905V134.974ZM665.423 130.116C668.436 133.221 672.578 134.974 676.905 134.974V126.974C674.742 126.974 672.671 126.097 671.164 124.545L665.423 130.116ZM652.545 116.844L665.423 130.116L671.164 124.545L658.287 111.273L652.545 116.844ZM657.209 123.019L659.286 115.07L651.546 113.048L649.469 120.996L657.209 123.019ZM641.729 134.974C649.007 134.974 655.368 130.061 657.209 123.019L649.469 120.996C648.549 124.517 645.368 126.974 641.729 126.974V134.974ZM614.772 134.974H641.729V126.974H614.772V134.974ZM603.757 130.578C606.724 133.395 610.665 134.974 614.772 134.974V126.974C612.719 126.974 610.748 126.184 609.264 124.776L603.757 130.578ZM598.25 134.974C602.516 134.974 606.4 133.298 609.265 130.578L603.756 124.777C602.318 126.142 600.385 126.974 598.25 126.974V134.974ZM572.622 134.974H598.25V126.974H572.622V134.974ZM561.206 130.184C564.215 133.248 568.328 134.974 572.622 134.974V126.974C570.475 126.974 568.419 126.111 566.914 124.579L561.206 130.184ZM549.127 117.883L561.206 130.184L566.914 124.579L554.835 112.278L549.127 117.883ZM553.54 119.206C554.072 118.727 554.57 118.213 555.033 117.667L548.929 112.495C548.698 112.768 548.449 113.025 548.183 113.265L553.54 119.206ZM549.668 122.698L553.54 119.206L548.183 113.265L544.31 116.757L549.668 122.698ZM547.736 124.189C548.417 123.742 549.063 123.244 549.668 122.698L544.31 116.757C544.008 117.029 543.685 117.279 543.344 117.502L547.736 124.189ZM543.33 127.083L547.736 124.189L543.345 117.502L538.938 120.396L543.33 127.083ZM541.268 128.228C541.983 127.898 542.672 127.515 543.33 127.083L538.938 120.396C538.609 120.612 538.265 120.803 537.908 120.968L541.268 128.228ZM536.345 130.507L541.268 128.228L537.908 120.968L532.985 123.247L536.345 130.507ZM534.276 131.296C534.983 131.081 535.674 130.818 536.345 130.507L532.984 123.247C532.649 123.403 532.303 123.534 531.95 123.642L534.276 131.296ZM528.852 132.944L534.276 131.296L531.95 123.642L526.526 125.29L528.852 132.944ZM526.873 133.411C527.542 133.297 528.203 133.142 528.852 132.944L526.526 125.29C526.202 125.389 525.871 125.466 525.536 125.523L526.873 133.411ZM520.965 134.412L526.873 133.411L525.537 125.523L519.629 126.524L520.965 134.412ZM519.138 134.614C519.75 134.582 520.36 134.514 520.965 134.412L519.629 126.524C519.326 126.575 519.021 126.609 518.715 126.625L519.138 134.614ZM512.763 134.951L519.138 134.614L518.715 126.625L512.34 126.962L512.763 134.951ZM511.917 134.974C512.199 134.974 512.481 134.966 512.763 134.951L512.34 126.962C512.199 126.97 512.058 126.974 511.917 126.974V134.974ZM474.625 134.974H511.917V126.974H474.625V134.974ZM463.271 130.247C466.275 133.272 470.362 134.974 474.625 134.974V126.974C472.494 126.974 470.45 126.123 468.948 124.61L463.271 130.247ZM461.203 128.165L463.271 130.247L468.948 124.61L466.88 122.528L461.203 128.165ZM453.872 134.974C459.591 134.974 464.606 131.97 467.429 127.473L460.654 123.219C459.233 125.483 456.725 126.974 453.872 126.974V134.974ZM432.778 134.974H453.872V126.974H432.778V134.974ZM421.451 130.274C424.452 133.283 428.528 134.974 432.778 134.974V126.974C430.653 126.974 428.615 126.128 427.114 124.624L421.451 130.274ZM410.456 119.253L421.451 130.274L427.114 124.624L416.12 113.603L410.456 119.253ZM417.288 118.974V116.428H409.288V118.974H417.288ZM401.288 134.974C410.124 134.974 417.288 127.81 417.288 118.974H409.288C409.288 123.392 405.706 126.974 401.288 126.974V134.974ZM375.661 134.974H401.288V126.974H375.661V134.974ZM364.37 130.31C367.369 133.297 371.428 134.974 375.661 134.974V126.974C373.545 126.974 371.515 126.135 370.015 124.642L364.37 130.31ZM362.246 128.195L364.37 130.31L370.015 124.642L367.891 122.526L362.246 128.195ZM354.908 134.974C360.619 134.974 365.627 131.979 368.453 127.492L361.684 123.229C360.261 125.487 357.757 126.974 354.908 126.974V134.974ZM329.28 134.974H354.908V126.974H329.28V134.974ZM318.019 130.339C321.015 133.308 325.062 134.974 329.28 134.974V126.974C327.171 126.974 325.148 126.141 323.65 124.656L318.019 130.339ZM302.271 114.735L318.019 130.339L323.65 124.656L307.901 109.052L302.271 114.735ZM297.532 103.369C297.532 107.638 299.238 111.73 302.271 114.735L307.901 109.052C306.385 107.55 305.532 105.504 305.532 103.369H297.532ZM297.532 101.922V103.369H305.532V101.922H297.532ZM302.256 106.003C302.641 105.838 303.019 105.658 303.39 105.464L299.675 98.3789C299.489 98.4761 299.3 98.566 299.108 98.6485L302.256 106.003ZM298.364 107.669L302.255 106.003L299.108 98.6484L295.216 100.314L298.364 107.669ZM296.442 108.35C297.096 108.164 297.738 107.936 298.364 107.669L295.216 100.314C294.903 100.448 294.582 100.562 294.255 100.655L296.442 108.35ZM292.18 109.561L296.442 108.35L294.255 100.655L289.993 101.866L292.18 109.561ZM290.338 109.969C290.959 109.869 291.574 109.733 292.18 109.561L289.993 101.866C289.69 101.952 289.383 102.02 289.072 102.07L290.338 109.969ZM285.724 110.708L290.338 109.969L289.072 102.07L284.459 102.809L285.724 110.708ZM284.001 110.889C284.579 110.86 285.154 110.799 285.724 110.708L284.459 102.809C284.173 102.854 283.886 102.885 283.597 102.899L284.001 110.889ZM279.054 111.139L284.001 110.889L283.597 102.899L278.65 103.15L279.054 111.139ZM278.246 111.16C278.516 111.16 278.785 111.153 279.054 111.139L278.65 103.149C278.516 103.156 278.381 103.16 278.246 103.16V111.16ZM276.889 111.16H278.246V103.16H276.889V111.16ZM280.889 118.974V107.16H272.889V118.974H280.889ZM264.889 134.974C273.725 134.974 280.889 127.81 280.889 118.974H272.889C272.889 123.392 269.307 126.974 264.889 126.974V134.974ZM239.262 134.974H264.889V126.974H239.262V134.974ZM228.247 130.579C231.217 133.398 235.159 134.974 239.262 134.974V126.974C237.21 126.974 235.239 126.186 233.754 124.776L228.247 130.579ZM222.739 134.974C226.875 134.974 230.808 133.375 233.754 130.579L228.247 124.776C226.773 126.175 224.807 126.974 222.739 126.974V134.974ZM195.782 134.974H222.739V126.974H195.782V134.974ZM184.604 130.421C187.593 133.34 191.605 134.974 195.782 134.974V126.974C193.694 126.974 191.688 126.157 190.193 124.698L184.604 130.421ZM171.352 117.481L184.604 130.421L190.193 124.698L176.941 111.757L171.352 117.481ZM176.086 123.019L178.016 115.631L170.276 113.608L168.346 120.996L176.086 123.019ZM160.605 134.974C167.884 134.974 174.245 130.061 176.086 123.019L168.346 120.996C167.425 124.517 164.245 126.974 160.605 126.974V134.974ZM133.649 134.974H160.605V126.974H133.649V134.974ZM125.454 132.716C127.913 134.182 130.741 134.974 133.649 134.974V126.974C132.195 126.974 130.781 126.578 129.551 125.845L125.454 132.716ZM278.448 99.1546L283.395 98.9044L282.991 90.9146L278.044 91.1648L278.448 99.1546ZM283.826 98.8591L288.439 98.1199L287.174 90.2207L282.56 90.9599L283.826 98.8591ZM288.9 98.018L293.162 96.807L290.975 89.1116L286.713 90.3226L288.9 98.018ZM293.642 96.6366L297.534 94.9711L294.386 87.6164L290.494 89.2819L293.642 96.6366ZM298.019 94.7232L301.522 92.6203L297.404 85.7613L293.901 87.8642L298.019 94.7232ZM305.513 89.364L308.184 86.438L302.274 81.0454L299.604 83.9714L305.513 89.364ZM308.549 85.9731L310.775 82.6614L304.135 78.1985L301.909 81.5102L308.549 85.9731ZM311.062 82.1585L312.826 78.4782L305.611 75.0211L303.848 78.7014L311.062 82.1585ZM313.03 77.9623L314.313 73.9307L306.689 71.5054L305.407 75.537L313.03 77.9623ZM314.438 73.4243L315.221 69.0586L307.347 67.6461L306.564 72.0118L314.438 73.4243ZM315.278 68.5785L315.543 63.8959L307.556 63.4436L307.291 68.1262L315.278 68.5785ZM315.549 63.6698V63.5489H307.549V63.6698H315.549ZM315.543 63.323L315.278 58.6345L307.291 59.0862L307.556 63.7747L315.543 63.323ZM315.222 58.1567L314.439 53.7745L306.564 55.1818L307.347 59.564L315.222 58.1567ZM314.315 53.2723L313.033 49.2159L305.405 51.6276L306.687 55.6841L314.315 53.2723ZM312.831 48.705L311.068 44.9936L303.842 48.4271L305.606 52.1385L312.831 48.705ZM310.786 44.4952L308.56 41.1481L301.898 45.5784L304.124 48.9255L310.786 44.4952ZM308.201 40.6857L305.53 37.7222L299.587 43.0774L302.257 46.0409L308.201 40.6857ZM289.313 21.5759L286.212 19.0109L281.113 25.1756L284.214 27.7405L289.313 21.5759ZM285.747 18.679L282.238 16.5371L278.069 23.3654L281.579 25.5074L285.747 18.679ZM281.752 16.2846L277.854 14.5849L274.657 21.9182L278.555 23.6179L281.752 16.2846ZM277.369 14.4098L273.1 13.1719L270.872 20.8553L275.141 22.0933L277.369 14.4098ZM272.632 13.0662L268.011 12.3092L266.718 20.204L271.339 20.961L272.632 13.0662ZM267.571 12.262L262.616 12.0054L262.202 19.9946L267.157 20.2513L267.571 12.262ZM332.096 116.132L316.348 100.528L310.717 106.211L326.465 121.815L332.096 116.132ZM435.61 116.149L420.042 100.544L414.378 106.194L429.946 121.799L435.61 116.149ZM378.527 18.817L394.157 34.5737L399.836 28.9397L384.206 13.183L378.527 18.817ZM511.917 114.974H474.625V122.974H511.917V114.974ZM518.081 114.642L511.706 114.979L512.129 122.968L518.504 122.631L518.081 114.642ZM523.532 113.692L517.624 114.693L518.961 122.58L524.868 121.579L523.532 113.692ZM528.461 112.16L523.037 113.808L525.363 121.463L530.787 119.815L528.461 112.16ZM532.867 110.079L527.944 112.357L531.304 119.617L536.227 117.338L532.867 110.079ZM536.758 107.472L532.351 110.365L536.743 117.052L541.149 114.159L536.758 107.472ZM540.147 104.353L536.275 107.844L541.632 113.786L545.504 110.294L540.147 104.353ZM545.464 96.5688L542.709 101.207L549.587 105.293L552.342 100.654L545.464 96.5688ZM547.385 91.8792L545.213 97.0669L552.593 100.156L554.765 94.9686L547.385 91.8792ZM548.79 86.6437L547.218 92.364L554.932 94.4838L556.504 88.7635L548.79 86.6437ZM549.648 80.8614L548.693 87.098L556.601 88.3092L557.556 82.0726L549.648 80.8614ZM549.929 74.5395L549.607 81.276L557.597 81.6581L557.92 74.9216L549.929 74.5395ZM549.924 74.6096V74.7305H557.924V74.6096H549.924ZM549.607 68.1054L549.929 74.8019L557.92 74.4174L557.597 67.721L549.607 68.1054ZM548.694 62.3742L549.649 68.5269L557.555 67.2996L556.599 61.1469L548.694 62.3742ZM547.224 57.2397L548.796 62.8413L556.498 60.6798L554.926 55.0782L547.224 57.2397ZM545.229 52.698L547.401 57.7411L554.749 54.5768L552.577 49.5337L545.229 52.698ZM542.741 48.735L545.496 53.2123L552.31 49.0194L549.554 44.5421L542.741 48.735ZM524.589 29.7922L539.964 45.5297L545.687 39.939L530.311 24.2015L524.589 29.7922ZM520.966 26.7026L524.845 30.0321L530.055 23.9615L526.176 20.6321L520.966 26.7026ZM517.047 24.3249L521.461 27.0656L525.681 20.2691L521.267 17.5285L517.047 24.3249ZM512.63 22.4506L517.562 24.595L520.752 17.2585L515.82 15.1141L512.63 22.4506ZM507.701 21.0897L513.134 22.6306L515.317 14.9341L509.883 13.3932L507.701 21.0897ZM502.253 20.2631L508.171 21.193L509.413 13.29L503.495 12.3601L502.253 20.2631ZM496.293 19.9952L502.679 20.3068L503.069 12.3164L496.683 12.0048L496.293 19.9952ZM601.121 28.9722L585.842 13.2155L580.099 18.7845L595.378 34.5413L601.121 28.9722ZM661.309 97.6269H646.262V105.627H661.309V97.6269ZM665.634 102.358L665.179 100.616L657.439 102.638L657.894 104.38L665.634 102.358ZM679.776 116.188L664.635 100.584L658.893 106.155L674.035 121.759L679.776 116.188ZM657.366 18.7718L672.51 34.5285L678.278 28.9849L663.134 13.2282L657.366 18.7718ZM628.039 20H660.25V12H628.039V20ZM263.059 54.8666L262.947 54.9288L266.83 61.9233L266.942 61.861L263.059 54.8666ZM263.813 54.2299L262.56 55.1948L267.441 61.5329L268.694 60.568L263.813 54.2299ZM264.422 53.5127L263.346 54.6517L269.161 60.1461L270.237 59.0072L264.422 53.5127ZM264.917 52.6961L264.023 54.0087L270.636 58.5112L271.53 57.1986L264.917 52.6961ZM265.315 51.746L264.61 53.2319L271.837 56.6628L272.542 55.1769L265.315 51.746ZM265.618 50.6248L265.106 52.2834L272.752 54.6395L273.263 52.9809L265.618 50.6248ZM265.627 50.3678L265.497 51.1331L273.384 52.4726L273.514 51.7072L265.627 50.3678ZM515.069 70.4356L515.762 67.2679L507.947 65.5572L507.254 68.7248L515.069 70.4356ZM513.979 73.702L514.946 70.8749L507.376 68.2855L506.409 71.1125L513.979 73.702ZM512.536 76.6782L513.775 74.19L506.613 70.6245L505.374 73.1127L512.536 76.6782ZM510.722 79.3429L512.23 77.1919L505.68 72.5989L504.172 74.7499L510.722 79.3429ZM508.531 81.6588L510.306 79.8433L504.587 74.2494L502.812 76.0649L508.531 81.6588ZM505.98 83.5804L508.021 82.0989L503.321 75.6248L501.28 77.1064L505.98 83.5804ZM503.111 85.0722L505.416 83.9228L501.845 76.764L499.54 77.9134L503.111 85.0722ZM501.469 85.6461L502.542 85.3033L500.11 77.6822L499.036 78.025L501.469 85.6461ZM508.291 48.1255H500.252V56.1255H508.291V48.1255ZM511.461 48.2946L508.512 48.1316L508.07 56.1194L511.019 56.2824L511.461 48.2946ZM512.544 48.4577L511.94 48.3503L510.539 56.2267L511.143 56.3341L512.544 48.4577ZM516.408 58.7561L516.257 55.2349L508.264 55.5782L508.415 59.0994L516.408 58.7561ZM516.412 59.0488V58.9277H508.412V59.0488H516.412ZM516.269 63.0475L516.409 59.1937L508.414 58.9039L508.275 62.7578L516.269 63.0475ZM136.433 116.102L120.344 100.498L114.774 106.241L130.864 121.845L136.433 116.102ZM160.605 114.974H133.649V122.974H160.605V114.974ZM161.269 100.616L156.735 117.962L164.476 119.985L169.009 102.638L161.269 100.616ZM222.739 114.974H195.782V122.974H222.739V114.974ZM190.469 32.9979L218.937 120.215L226.542 117.732L198.074 30.5155L190.469 32.9979ZM121.361 104.61L149.879 17.2412L142.274 14.7588L113.756 102.128L121.361 104.61ZM89.0868 32.9979L117.555 120.215L125.16 117.732L96.692 30.5155L89.0868 32.9979ZM59.2235 114.974H32.2667V122.974H59.2235V114.974ZM59.8866 100.616L55.3535 117.962L63.0936 119.985L67.6267 102.638L59.8866 100.616ZM121.357 114.974H94.4004V122.974H121.357V114.974ZM220.555 106.224L236.46 121.829L242.063 116.118L226.157 100.514L220.555 106.224ZM239.262 122.974H264.889V114.974H239.262V122.974ZM268.889 118.974V95.1597H260.889V118.974H268.889ZM264.889 99.1597H278.246V91.1597H264.889V99.1597ZM301.99 92.2914L305.086 89.7684L300.032 83.567L296.936 86.0901L301.99 92.2914ZM305.382 37.5666L289.587 21.825L283.94 27.4914L299.735 43.233L305.382 37.5666ZM262.409 12H223.356V20H262.409V12ZM219.356 16V103.369H227.356V16H219.356ZM317.532 103.369V16H309.532V103.369H317.532ZM354.908 114.974H329.28V122.974H354.908V114.974ZM350.908 31.7567V118.974H358.908V31.7567H350.908ZM336.371 18.8236L352.074 34.5804L357.741 28.9331L342.037 13.1764L336.371 18.8236ZM313.532 20H339.204V12H313.532V20ZM378.484 116.14L362.816 100.535L357.171 106.203L372.838 121.808L378.484 116.14ZM401.288 114.974H375.661V122.974H401.288V114.974ZM397.288 80.1362V118.974H405.288V80.1362H397.288ZM420.51 101.108L404.587 77.8749L397.988 82.3975L413.911 105.63L420.51 101.108ZM453.872 114.974H432.778V122.974H453.872V114.974ZM449.872 31.7567V118.974H457.872V31.7567H449.872ZM435.492 18.8079L451.023 34.5646L456.721 28.9488L441.19 13.1921L435.492 18.8079ZM412.669 20H438.341V12H412.669V20ZM416.669 54.4359V16H408.669V54.4359H416.669ZM393.706 34.0308L409.379 56.71L415.96 52.1619L400.287 29.4827L393.706 34.0308ZM359.993 20H381.366V12H359.993V20ZM363.993 103.369V16H355.993V103.369H363.993ZM477.463 116.155L461.969 100.551L456.292 106.188L471.787 121.792L477.463 116.155ZM543.048 100.722L539.726 104.795L545.925 109.852L549.248 105.778L543.048 100.722ZM539.779 45.3266L543.101 49.2308L549.194 44.0463L545.872 40.1422L539.779 45.3266ZM459.13 20H496.488V12H459.13V20ZM463.13 103.369V16H455.13V103.369H463.13ZM554.445 106.172L569.768 121.776L575.476 116.171L560.153 100.567L554.445 106.172ZM572.622 122.974H598.25V114.974H572.622V122.974ZM602.25 118.974V31.7567H594.25V118.974H602.25ZM582.971 12H557.299V20H582.971V12ZM553.299 16V103.369H561.299V16H553.299ZM617.632 116.178L602.382 100.573L596.661 106.165L611.911 121.769L617.632 116.178ZM641.729 114.974H614.772V122.974H641.729V114.974ZM642.392 100.616L637.859 117.962L645.599 119.985L650.132 102.638L642.392 100.616ZM703.862 114.974H676.905V122.974H703.862V114.974ZM671.592 32.9979L700.06 120.215L707.665 117.732L679.197 30.5155L671.592 32.9979ZM603.324 104.61L631.842 17.2412L624.237 14.7588L595.719 102.128L603.324 104.61ZM264.889 55.0375H269.57V47.0375H264.889V55.0375ZM268.889 58.4261V51.0375H260.889V58.4261H268.889ZM515.826 66.8851L516.244 63.3752L508.3 62.4301L507.882 65.94L515.826 66.8851ZM496.252 52.1255V81.8356H504.252V52.1255H496.252ZM516.223 54.8577L515.806 51.847L507.881 52.9447L508.298 55.9554L516.223 54.8577Z" fill="black" mask="url(#path-1-outside-1_6_94)"/>
<path d="M92.8894 31.7567L121.357 118.974H94.4004L78.2422 103.369L77.7869 101.627H63.7567L59.2235 118.974H32.2667L16 103.369L44.5176 16H76.7285L92.8894 31.7567Z" fill="url(#paint0_linear_6_94)"/>
<path d="M194.271 31.7567L222.739 118.974H195.782L179.801 103.369L179.346 101.627H165.139L160.605 118.974H133.649L117.559 103.369L146.076 16H178.287L194.271 31.7567Z" fill="url(#paint1_linear_6_94)"/>
<path fill-rule="evenodd" clip-rule="evenodd" d="M302.559 40.3998L305.229 43.3633L307.455 46.7104L309.219 50.4218L310.501 54.4782L311.284 58.8603L311.549 63.5489V63.6698L311.284 68.3524L310.501 72.7181L309.219 76.7496L307.455 80.4299L305.229 83.7417L302.559 86.6677L299.463 89.1908L295.96 91.2937L292.068 92.9593L287.807 94.1703L283.193 94.9095L278.246 95.1597H264.889V118.974H239.262L223.356 103.369V16H262.409L267.364 16.2566L271.986 17.0136L276.255 18.2516L280.154 19.9512L283.663 22.0932L286.764 24.6582L302.559 40.3998ZM264.889 58.4261L265.001 58.3638L266.254 57.3989L267.33 56.26L268.224 54.9473L268.929 53.4615L269.44 51.8028L269.57 51.0375H264.889V58.4261Z" fill="url(#paint2_linear_6_94)"/>
<path d="M354.908 31.7567V118.974H329.28L313.532 103.369V16H339.204L354.908 31.7567Z" fill="url(#paint3_linear_6_94)"/>
<path d="M412.669 54.4359L396.997 31.7567L381.366 16H359.993V103.369L375.661 118.974H401.288V80.1362L417.21 103.369L432.778 118.974H453.872V31.7567L438.341 16H412.669V54.4359Z" fill="url(#paint4_linear_6_94)"/>
<path fill-rule="evenodd" clip-rule="evenodd" d="M542.826 42.7344L546.148 46.6385L548.903 51.1159L551.075 56.159L552.647 61.7605L553.602 67.9132L553.924 74.6096V74.7305L553.602 81.467L552.647 87.7036L551.075 93.4239L548.903 98.6116L546.148 103.25L542.826 107.324L538.953 110.815L534.547 113.709L529.624 115.987L524.2 117.636L518.292 118.636L511.917 118.974H474.625L459.13 103.369V16H496.488L502.874 16.3116L508.792 17.2415L514.225 18.7823L519.157 20.9267L523.571 23.6673L527.45 26.9968L542.826 42.7344ZM511.843 52.3959L511.24 52.2885L508.291 52.1255H500.252V81.8356L501.326 81.4928L503.63 80.3434L505.671 78.8618L507.447 77.0464L508.955 74.8954L510.194 72.4073L511.161 69.5802L511.854 66.4126L512.272 62.9027L512.412 59.0488V58.9277L512.26 55.4066L511.843 52.3959Z" fill="url(#paint5_linear_6_94)"/>
<path d="M598.25 31.7567V118.974H572.622L557.299 103.369V16H582.971L598.25 31.7567Z" fill="url(#paint6_linear_6_94)"/>
<path d="M675.394 31.7567L703.862 118.974H676.905L661.764 103.369L661.309 101.627H646.262L641.729 118.974H614.772L599.522 103.369L628.039 16H660.25L675.394 31.7567Z" fill="url(#paint7_linear_6_94)"/>
<path d="M121.357 118.974L92.8894 31.7567L76.7285 16H44.5176L16 103.369L32.2667 118.974H59.2235M121.357 118.974H94.4004L78.2422 103.369L77.7869 101.627H63.7567M121.357 118.974L105.753 103.369M63.7567 101.627L59.2235 118.974M63.7567 101.627L48.1297 86M59.2235 118.974L43.6191 103.369M222.739 118.974L194.271 31.7567L178.287 16H146.076L117.559 103.369L133.649 118.974H160.605M222.739 118.974H195.782L179.801 103.369L179.346 101.627H165.139M222.739 118.974L207.135 103.369M165.139 101.627L160.605 118.974M165.139 101.627L150.012 86.5M160.605 118.974L145.001 103.369M264.889 95.1597H278.246L283.193 94.9095L287.807 94.1703L292.068 92.9593L295.96 91.2937L299.463 89.1908L302.559 86.6677L305.229 83.7417L307.455 80.4299L309.219 76.7496L310.501 72.7181L311.284 68.3524L311.549 63.6698V63.5489L311.284 58.8603L310.501 54.4782L309.219 50.4218L307.455 46.7104L305.229 43.3633L302.559 40.3998L286.764 24.6582L283.663 22.0932L280.154 19.9512L276.255 18.2516L271.986 17.0136L267.364 16.2566L262.409 16H223.356V103.369L239.262 118.974H264.889M264.889 95.1597V118.974M264.889 95.1597L250.159 80.4299M264.889 118.974L249.284 103.369M264.889 51.0375H269.57L269.44 51.8028L268.929 53.4615L268.224 54.9473L267.33 56.26L266.254 57.3989L265.001 58.3638L264.889 58.4261V51.0375ZM264.889 51.0375L250.159 36.3077M354.908 118.974V31.7567L339.204 16H313.532V103.369L329.28 118.974H354.908ZM354.908 118.974L339.303 103.369M401.288 118.974H375.661L359.993 103.369V16H381.366L396.997 31.7567L412.669 54.4359V16H438.341L453.872 31.7567V118.974M401.288 118.974V80.1362L417.21 103.369L432.778 118.974H453.872M401.288 118.974L385.683 103.369M453.872 118.974L438.267 103.369M500.252 52.1255H508.291L511.24 52.2885L511.843 52.3959L512.26 55.4066L512.412 58.9277V59.0488L512.272 62.9027L511.854 66.4126L511.161 69.5802L510.194 72.4073L508.955 74.8954L507.447 77.0464L505.671 78.8618L503.63 80.3434L501.326 81.4928L500.252 81.8356V52.1255ZM500.252 52.1255L485.127 37M598.25 118.974V31.7567L582.971 16H557.299V103.369L572.622 118.974H598.25ZM598.25 118.974L582.645 103.369M703.862 118.974L675.394 31.7567L660.25 16H628.039L599.522 103.369L614.772 118.974H641.729M703.862 118.974H676.905L661.764 103.369L661.309 101.627H646.262M703.862 118.974L688.258 103.369M646.262 101.627L641.729 118.974M646.262 101.627L631 86.3652M641.729 118.974L626.124 103.369M546.148 46.6385L542.826 42.7344L527.45 26.9968L523.571 23.6673L519.157 20.9267L514.225 18.7823L508.792 17.2415L502.874 16.3116L496.488 16H459.13V103.369L474.625 118.974H511.917L518.292 118.636L524.2 117.636L529.624 115.987L534.547 113.709L538.953 110.815L542.826 107.324L546.148 103.25L548.903 98.6116L551.075 93.4239L552.647 87.7036L553.602 81.467L553.924 74.7305V74.6096L553.602 67.9132L552.647 61.7605L551.075 56.159L548.903 51.1159L546.148 46.6385Z" stroke="black" stroke-width="4" stroke-linejoin="round"/>
<path d="M16 103.369L44.5176 16H76.7285L105.246 103.369H78.2422L73.7012 85.9922H47.5449L43.0039 103.369H16ZM60.3809 36.8281L52.2676 67.8887H68.9785L60.8652 36.8281H60.3809Z" fill="white"/>
<path d="M117.559 103.369L146.076 16H178.287L206.805 103.369H179.801L175.26 85.9922H149.104L144.563 103.369H117.559ZM161.94 36.8281L153.826 67.8887H170.537L162.424 36.8281H161.94Z" fill="white"/>
<path d="M223.356 103.369V16H262.409C282.874 16 295.77 28.4727 295.77 47.8477V47.9688C295.77 67.3438 282.874 79.5137 262.409 79.5137H249.028V103.369H223.356ZM256.294 35.3145H249.028V60.5625H256.294C264.77 60.5625 269.856 56.3242 269.856 47.9688V47.8477C269.856 39.4922 264.77 35.3145 256.294 35.3145Z" fill="white"/>
<path d="M313.532 103.369V16H339.204V103.369H313.532Z" fill="white"/>
<path d="M359.993 103.369V16H381.366L412.245 60.6836H412.669V16H438.341V103.369H417.21L386.089 57.959H385.665V103.369H359.993Z" fill="white"/>
<path d="M459.13 103.369V16H496.488C522.947 16 538.568 31.0156 538.568 58.9277V59.0488C538.568 87.0215 522.947 103.369 496.488 103.369H459.13ZM484.802 82.9648H492.855C505.691 82.9648 512.412 75.1543 512.412 59.0488V58.9277C512.412 44.2754 505.086 36.4043 492.855 36.4043H484.802V82.9648Z" fill="white"/>
<path d="M557.299 103.369V16H582.971V103.369H557.299Z" fill="white"/>
<path d="M599.522 103.369L628.039 16H660.25L688.768 103.369H661.764L657.223 85.9922H631.067L626.526 103.369H599.522ZM643.903 36.8281L635.789 67.8887H652.5L644.387 36.8281H643.903Z" fill="white"/>
<path d="M16 103.369L44.5176 16H76.7285L105.246 103.369H78.2422L73.7012 85.9922H47.5449L43.0039 103.369H16ZM60.3809 36.8281L52.2676 67.8887H68.9785L60.8652 36.8281H60.3809Z" stroke="black" stroke-width="4" stroke-linejoin="round"/>
<path d="M117.559 103.369L146.076 16H178.287L206.805 103.369H179.801L175.26 85.9922H149.104L144.563 103.369H117.559ZM161.94 36.8281L153.826 67.8887H170.537L162.424 36.8281H161.94Z" stroke="black" stroke-width="4" stroke-linejoin="round"/>
<path d="M223.356 103.369V16H262.409C282.874 16 295.77 28.4727 295.77 47.8477V47.9688C295.77 67.3438 282.874 79.5137 262.409 79.5137H249.028V103.369H223.356ZM256.294 35.3145H249.028V60.5625H256.294C264.77 60.5625 269.856 56.3242 269.856 47.9688V47.8477C269.856 39.4922 264.77 35.3145 256.294 35.3145Z" stroke="black" stroke-width="4" stroke-linejoin="round"/>
<path d="M313.532 103.369V16H339.204V103.369H313.532Z" stroke="black" stroke-width="4" stroke-linejoin="round"/>
<path d="M359.993 103.369V16H381.366L412.245 60.6836H412.669V16H438.341V103.369H417.21L386.089 57.959H385.665V103.369H359.993Z" stroke="black" stroke-width="4" stroke-linejoin="round"/>
<path d="M459.13 103.369V16H496.488C522.947 16 538.568 31.0156 538.568 58.9277V59.0488C538.568 87.0215 522.947 103.369 496.488 103.369H459.13ZM484.802 82.9648H492.855C505.691 82.9648 512.412 75.1543 512.412 59.0488V58.9277C512.412 44.2754 505.086 36.4043 492.855 36.4043H484.802V82.9648Z" stroke="black" stroke-width="4" stroke-linejoin="round"/>
<path d="M557.299 103.369V16H582.971V103.369H557.299Z" stroke="black" stroke-width="4" stroke-linejoin="round"/>
<path d="M599.522 103.369L628.039 16H660.25L688.768 103.369H661.764L657.223 85.9922H631.067L626.526 103.369H599.522ZM643.903 36.8281L635.789 67.8887H652.5L644.387 36.8281H643.903Z" stroke="black" stroke-width="4" stroke-linejoin="round"/>
<defs>
<linearGradient id="paint0_linear_6_94" x1="16" y1="16" x2="704" y2="119" gradientUnits="userSpaceOnUse">
<stop stop-color="#DC0000"/>
<stop offset="1" stop-color="#FFB800"/>
</linearGradient>
<linearGradient id="paint1_linear_6_94" x1="16" y1="16" x2="704" y2="119" gradientUnits="userSpaceOnUse">
<stop stop-color="#DC0000"/>
<stop offset="1" stop-color="#FFB800"/>
</linearGradient>
<linearGradient id="paint2_linear_6_94" x1="16" y1="16" x2="704" y2="119" gradientUnits="userSpaceOnUse">
<stop stop-color="#DC0000"/>
<stop offset="1" stop-color="#FFB800"/>
</linearGradient>
<linearGradient id="paint3_linear_6_94" x1="16" y1="16" x2="704" y2="119" gradientUnits="userSpaceOnUse">
<stop stop-color="#DC0000"/>
<stop offset="1" stop-color="#FFB800"/>
</linearGradient>
<linearGradient id="paint4_linear_6_94" x1="16" y1="16" x2="704" y2="119" gradientUnits="userSpaceOnUse">
<stop stop-color="#DC0000"/>
<stop offset="1" stop-color="#FFB800"/>
</linearGradient>
<linearGradient id="paint5_linear_6_94" x1="16" y1="16" x2="704" y2="119" gradientUnits="userSpaceOnUse">
<stop stop-color="#DC0000"/>
<stop offset="1" stop-color="#FFB800"/>
</linearGradient>
<linearGradient id="paint6_linear_6_94" x1="16" y1="16" x2="704" y2="119" gradientUnits="userSpaceOnUse">
<stop stop-color="#DC0000"/>
<stop offset="1" stop-color="#FFB800"/>
</linearGradient>
<linearGradient id="paint7_linear_6_94" x1="16" y1="16" x2="704" y2="119" gradientUnits="userSpaceOnUse">
<stop stop-color="#DC0000"/>
<stop offset="1" stop-color="#FFB800"/>
</linearGradient>
</defs>
</svg>
